<svg width="53" height="11" viewBox="0 0 53 11" fill="none" xmlns="http://www.w3.org/2000/svg">
<path d="M3.96694 10.8419C3.11557 10.8419 2.39784 10.6996 1.81376 10.4149C1.22968 10.1201 0.784195 9.73889 0.477305 9.27126C0.180315 8.80363 0.0219207 8.3055 0.00212135 7.77688C-0.0077783 7.68539 0.0169709 7.61422 0.0763689 7.5634C0.145667 7.5024 0.224864 7.4719 0.313961 7.4719H1.69496C1.80386 7.4719 1.89296 7.49732 1.96226 7.54815C2.04145 7.58881 2.10085 7.66505 2.14045 7.77688C2.23945 8.08185 2.37804 8.33092 2.55624 8.52407C2.74433 8.71722 2.95717 8.85954 3.19476 8.95103C3.44226 9.04253 3.69965 9.08827 3.96694 9.08827C4.32333 9.08827 4.64506 9.01711 4.93215 8.87479C5.22914 8.7223 5.46674 8.49865 5.64493 8.20384C5.82312 7.90903 5.91222 7.54815 5.91222 7.12118C5.91222 6.74504 5.82807 6.41974 5.65978 6.14526C5.49149 5.87078 5.25884 5.6573 4.96185 5.50481C4.67476 5.34216 4.34313 5.26083 3.96694 5.26083C3.68975 5.26083 3.46206 5.29641 3.28386 5.36757C3.10567 5.43873 2.95222 5.52006 2.82353 5.61155C2.70473 5.70304 2.59583 5.78437 2.49684 5.85553C2.40774 5.92669 2.30379 5.96227 2.185 5.96227H0.818844C0.729747 5.96227 0.650549 5.93177 0.581252 5.87078C0.521854 5.79962 0.492155 5.71829 0.492155 5.6268L1.01189 0.411717C1.02179 0.279561 1.06634 0.177903 1.14553 0.106742C1.22473 0.0355808 1.31878 0 1.42767 0H7.01108C7.11008 0 7.19423 0.0355808 7.26353 0.106742C7.33282 0.177903 7.36747 0.264312 7.36747 0.365971V1.38764C7.36747 1.4893 7.33282 1.57571 7.26353 1.64687C7.19423 1.71803 7.11008 1.75361 7.01108 1.75361H2.71958L2.48199 4.23916C2.66018 4.11717 2.89777 4.00026 3.19476 3.88844C3.49175 3.77661 3.90259 3.7207 4.42727 3.7207C4.90246 3.7207 5.35289 3.80203 5.77858 3.96468C6.21416 4.11717 6.60025 4.3459 6.93684 4.65088C7.27343 4.94569 7.53577 5.30657 7.72386 5.73354C7.92185 6.15034 8.02085 6.62814 8.02085 7.16693C8.02085 7.90903 7.85256 8.55456 7.51597 9.10352C7.17938 9.65248 6.70915 10.0794 6.10527 10.3844C5.50139 10.6894 4.78861 10.8419 3.96694 10.8419Z" fill="white"/>
<path d="M9.92333 5.33707C9.82433 5.33707 9.74018 5.30149 9.67088 5.23033C9.60159 5.15917 9.56694 5.07276 9.56694 4.9711V3.52247C9.56694 3.41064 9.60159 3.31915 9.67088 3.24799C9.74018 3.17683 9.82433 3.14125 9.92333 3.14125H11.3934C11.5023 3.14125 11.5914 3.17683 11.6607 3.24799C11.73 3.31915 11.7647 3.41064 11.7647 3.52247V4.9711C11.7647 5.07276 11.73 5.15917 11.6607 5.23033C11.5914 5.30149 11.5023 5.33707 11.3934 5.33707H9.92333ZM9.92333 10.6741C9.82433 10.6741 9.74018 10.6386 9.67088 10.5674C9.60159 10.4962 9.56694 10.4098 9.56694 10.3082V8.85954C9.56694 8.74772 9.60159 8.65622 9.67088 8.58506C9.74018 8.5139 9.82433 8.47832 9.92333 8.47832H11.3934C11.5023 8.47832 11.5914 8.5139 11.6607 8.58506C11.73 8.65622 11.7647 8.74772 11.7647 8.85954V10.3082C11.7647 10.4098 11.73 10.4962 11.6607 10.5674C11.5914 10.6386 11.5023 10.6741 11.3934 10.6741H9.92333Z" fill="white"/>
<path d="M16.8196 10.6741C16.7107 10.6741 16.6216 10.6386 16.5524 10.5674C16.493 10.4962 16.4633 10.4098 16.4633 10.3082V2.40931L14.2061 4.19341C14.117 4.25441 14.0279 4.27982 13.9388 4.26966C13.8497 4.24933 13.7705 4.19341 13.7012 4.10192L13.0776 3.27849C13.0182 3.187 12.9934 3.09042 13.0033 2.98876C13.0231 2.8871 13.0776 2.80578 13.1667 2.74478L16.493 0.106742C16.5524 0.0559128 16.6117 0.025415 16.6711 0.0152487C16.7305 0.00508299 16.7949 0 16.8642 0H18.1709C18.2699 0 18.3541 0.0355808 18.4234 0.106742C18.4927 0.177903 18.5273 0.264312 18.5273 0.365971V10.3082C18.5273 10.4098 18.4927 10.4962 18.4234 10.5674C18.3541 10.6386 18.2699 10.6741 18.1709 10.6741H16.8196Z" fill="white"/>
<path d="M24.1982 10.8266C23.5052 10.8266 22.9063 10.7402 22.4014 10.5674C21.8965 10.3946 21.4758 10.1709 21.1392 9.89646C20.8125 9.61181 20.565 9.30684 20.3967 8.98153C20.2285 8.64606 20.1394 8.31567 20.1295 7.99036C20.1295 7.89887 20.1592 7.82771 20.2186 7.77688C20.2878 7.71588 20.367 7.68538 20.4561 7.68538H21.7926C21.8916 7.68538 21.9757 7.70572 22.045 7.74638C22.1143 7.78704 22.1737 7.86837 22.2232 7.99036C22.3123 8.26484 22.4559 8.4834 22.6539 8.64606C22.8618 8.80871 23.0994 8.92562 23.3666 8.99678C23.6339 9.05777 23.9161 9.08827 24.2131 9.08827C24.807 9.08827 25.2773 8.94595 25.6238 8.66131C25.9802 8.3665 26.1584 7.9497 26.1584 7.41091C26.1584 6.87212 25.995 6.48581 25.6683 6.252C25.3416 6.00802 24.8862 5.88603 24.3022 5.88603H22.7727C22.6638 5.88603 22.5747 5.85553 22.5054 5.79454C22.4361 5.72338 22.4014 5.63188 22.4014 5.52006V4.87961C22.4014 4.77795 22.4212 4.69154 22.4608 4.62038C22.5103 4.53905 22.5598 4.47298 22.6093 4.42215L25.2674 1.75361H21.0204C20.9115 1.75361 20.8224 1.71803 20.7531 1.64687C20.6937 1.57571 20.664 1.4893 20.664 1.38764V0.38122C20.664 0.269395 20.6937 0.177903 20.7531 0.106742C20.8224 0.0355808 20.9115 0 21.0204 0H27.3909C27.4998 0 27.5889 0.0355808 27.6582 0.106742C27.7274 0.177903 27.7621 0.269395 27.7621 0.38122V1.29615C27.7621 1.38764 27.7423 1.46897 27.7027 1.54013C27.6631 1.61129 27.6186 1.67228 27.5691 1.72311L25.0001 4.4374L25.1783 4.45264C25.7822 4.50347 26.3167 4.6458 26.782 4.87961C27.2572 5.10326 27.6235 5.43365 27.8809 5.87078C28.1482 6.30791 28.2818 6.85687 28.2818 7.51765C28.2818 8.20893 28.1036 8.80363 27.7472 9.30176C27.4008 9.78972 26.9206 10.1659 26.3068 10.4302C25.6931 10.6945 24.9902 10.8266 24.1982 10.8266Z" fill="white"/>
<path d="M33.8415 10.6741C33.7425 10.6741 33.6583 10.6386 33.589 10.5674C33.5197 10.4962 33.4851 10.4098 33.4851 10.3082V0.38122C33.4851 0.269395 33.5197 0.177903 33.589 0.106742C33.6583 0.0355808 33.7425 0 33.8415 0H37.8211C38.5933 0 39.2665 0.127073 39.8407 0.38122C40.4148 0.6252 40.8603 1.00134 41.1771 1.50963C41.4939 2.00776 41.6523 2.63296 41.6523 3.38523C41.6523 4.14767 41.4939 4.77795 41.1771 5.27608C40.8603 5.76404 40.4148 6.13001 39.8407 6.37399C39.2665 6.61797 38.5933 6.73996 37.8211 6.73996H35.6086V10.3082C35.6086 10.4098 35.5739 10.4962 35.5046 10.5674C35.4452 10.6386 35.3611 10.6741 35.2522 10.6741H33.8415ZM35.5789 5.04735H37.7469C38.3211 5.04735 38.7616 4.91011 39.0685 4.63563C39.3754 4.35098 39.5288 3.93419 39.5288 3.38523C39.5288 2.87694 39.3853 2.4703 39.0982 2.16533C38.8111 1.85019 38.3607 1.69261 37.7469 1.69261H35.5789V5.04735Z" fill="white"/>
<path d="M43.6448 10.6741C43.5359 10.6741 43.4468 10.6386 43.3775 10.5674C43.3082 10.4962 43.2736 10.4098 43.2736 10.3082V0.38122C43.2736 0.269395 43.3082 0.177903 43.3775 0.106742C43.4468 0.0355808 43.5359 0 43.6448 0H44.8179C44.9565 0 45.0604 0.0406635 45.1297 0.12199C45.199 0.193151 45.2436 0.249063 45.2634 0.289727L48.1293 5.77929L51.025 0.289727C51.0448 0.249063 51.0893 0.193151 51.1586 0.12199C51.2279 0.0406635 51.3319 0 51.4705 0H52.6287C52.7376 0 52.8267 0.0355808 52.896 0.106742C52.9653 0.177903 53 0.269395 53 0.38122V10.3082C53 10.4098 52.9653 10.4962 52.896 10.5674C52.8267 10.6386 52.7376 10.6741 52.6287 10.6741H51.3814C51.2725 10.6741 51.1834 10.6386 51.1141 10.5674C51.0547 10.4962 51.025 10.4098 51.025 10.3082V3.70545L48.9461 7.77688C48.8966 7.86837 48.8322 7.9497 48.753 8.02086C48.6738 8.08185 48.5699 8.11235 48.4412 8.11235H47.8324C47.6938 8.11235 47.5849 8.08185 47.5057 8.02086C47.4364 7.9497 47.377 7.86837 47.3275 7.77688L45.2485 3.70545V10.3082C45.2485 10.4098 45.2139 10.4962 45.1446 10.5674C45.0753 10.6386 44.9912 10.6741 44.8922 10.6741H43.6448Z" fill="white"/>
</svg>
