<svg width="27" height="11" viewBox="0 0 27 11" fill="none" xmlns="http://www.w3.org/2000/svg">
<path d="M1.76068 10.8472C1.67264 10.8472 1.59928 10.8167 1.54059 10.7555C1.49168 10.6842 1.46723 10.6028 1.46723 10.5111C1.46723 10.4805 1.47701 10.4347 1.49658 10.3736L5.14998 1.48194H0.337463C0.239648 1.48194 0.156505 1.45139 0.0880339 1.39028C0.0293446 1.31898 0 1.23241 0 1.13055V0.519444C0 0.407407 0.0293446 0.320833 0.0880339 0.259722C0.156505 0.188426 0.239648 0.152777 0.337463 0.152777H6.35311C6.47049 0.152777 6.55852 0.188426 6.61721 0.259722C6.6759 0.320833 6.70525 0.407407 6.70525 0.519444V1.08472C6.70525 1.21713 6.69546 1.32407 6.6759 1.40555C6.65634 1.48704 6.62699 1.5787 6.58787 1.68055L2.97848 10.4653C2.93935 10.5467 2.88555 10.6333 2.81708 10.725C2.75839 10.8065 2.67036 10.8472 2.55298 10.8472H1.76068Z" fill="white"/>
<path d="M11.7481 11C11.0731 11 10.5009 10.893 10.0314 10.6792C9.57166 10.4551 9.19507 10.1495 8.90162 9.76249C8.60818 9.37545 8.39298 8.9324 8.25604 8.43332C8.12888 7.93425 8.05552 7.40462 8.03596 6.84444C8.02617 6.56944 8.01639 6.27916 8.00661 5.9736C8.00661 5.66805 8.00661 5.3574 8.00661 5.04166C8.01639 4.72592 8.02617 4.42546 8.03596 4.14027C8.04574 3.58009 8.1191 3.05046 8.25604 2.55139C8.40276 2.05231 8.62285 1.61435 8.91629 1.2375C9.20974 0.850462 9.58633 0.549999 10.0461 0.336111C10.5156 0.112037 11.0829 0 11.7481 0C12.423 0 12.9903 0.112037 13.45 0.336111C13.9196 0.549999 14.301 0.850462 14.5945 1.2375C14.8879 1.61435 15.1031 2.05231 15.2401 2.55139C15.3868 3.05046 15.465 3.58009 15.4748 4.14027C15.4846 4.42546 15.4895 4.72592 15.4895 5.04166C15.4993 5.3574 15.4993 5.66805 15.4895 5.9736C15.4895 6.27916 15.4846 6.56944 15.4748 6.84444C15.465 7.40462 15.3868 7.93425 15.2401 8.43332C15.1031 8.9324 14.8879 9.37545 14.5945 9.76249C14.3108 10.1495 13.9342 10.4551 13.4647 10.6792C13.005 10.893 12.4328 11 11.7481 11ZM11.7481 9.6861C12.511 9.6861 13.0734 9.42638 13.4354 8.90694C13.8071 8.38749 13.9978 7.67453 14.0076 6.76805C14.0271 6.47268 14.0369 6.18749 14.0369 5.91249C14.0369 5.62731 14.0369 5.34722 14.0369 5.07222C14.0369 4.78703 14.0271 4.50694 14.0076 4.23194C13.9978 3.34583 13.8071 2.63796 13.4354 2.10833C13.0734 1.56852 12.511 1.29861 11.7481 1.29861C10.9949 1.29861 10.4324 1.56852 10.0607 2.10833C9.69882 2.63796 9.50808 3.34583 9.48852 4.23194C9.48852 4.50694 9.48362 4.78703 9.47384 5.07222C9.47384 5.34722 9.47384 5.62731 9.47384 5.91249C9.48362 6.18749 9.48852 6.47268 9.48852 6.76805C9.50808 7.67453 9.70371 8.38749 10.0754 8.90694C10.4471 9.42638 11.0047 9.6861 11.7481 9.6861Z" fill="white"/>
<path d="M18.0097 10.8472C17.8043 10.8472 17.7016 10.7454 17.7016 10.5417C17.7016 10.4805 17.7211 10.4245 17.7603 10.3736L25.0084 0.443055C25.0769 0.351388 25.1404 0.280092 25.1991 0.229166C25.2676 0.17824 25.3654 0.152777 25.4926 0.152777H25.9768C26.1822 0.152777 26.2849 0.254629 26.2849 0.458333C26.2849 0.519444 26.2653 0.575462 26.2262 0.626388L18.9927 10.5569C18.9243 10.6486 18.8558 10.7199 18.7873 10.7708C18.7286 10.8217 18.6308 10.8472 18.4939 10.8472H18.0097ZM24.7296 10.9389C24.0938 10.9389 23.5901 10.7505 23.2184 10.3736C22.8564 9.99675 22.6559 9.50277 22.6168 8.89166C22.607 8.62684 22.6021 8.40277 22.6021 8.21944C22.6021 8.02592 22.607 7.78657 22.6168 7.50138C22.6559 6.89027 22.8467 6.39629 23.189 6.01944C23.5412 5.6324 24.0547 5.43888 24.7296 5.43888C25.4143 5.43888 25.9278 5.6324 26.2702 6.01944C26.6223 6.39629 26.818 6.89027 26.8571 7.50138C26.8767 7.78657 26.8864 8.02592 26.8864 8.21944C26.8864 8.40277 26.8767 8.62684 26.8571 8.89166C26.818 9.50277 26.6126 9.99675 26.2409 10.3736C25.8789 10.7505 25.3752 10.9389 24.7296 10.9389ZM24.7296 9.93054C24.9937 9.93054 25.1991 9.87453 25.3458 9.76249C25.4926 9.65045 25.6002 9.51295 25.6686 9.34999C25.7371 9.17684 25.7762 9.00369 25.786 8.83055C25.8056 8.55555 25.8154 8.33656 25.8154 8.1736C25.8154 8.01064 25.8056 7.80694 25.786 7.56249C25.7762 7.28749 25.6931 7.03286 25.5366 6.7986C25.3801 6.56434 25.1111 6.44721 24.7296 6.44721C24.3579 6.44721 24.0938 6.56434 23.9373 6.7986C23.7906 7.03286 23.7074 7.28749 23.6879 7.56249C23.6781 7.80694 23.6732 8.01064 23.6732 8.1736C23.6732 8.33656 23.6781 8.55555 23.6879 8.83055C23.7074 9.00369 23.7466 9.17684 23.8053 9.34999C23.8737 9.51295 23.9813 9.65045 24.128 9.76249C24.2845 9.87453 24.4851 9.93054 24.7296 9.93054ZM19.2422 5.51527C18.5966 5.51527 18.0928 5.33703 17.7309 4.98055C17.369 4.62407 17.1685 4.14027 17.1294 3.52916C17.1196 3.26435 17.1147 3.04027 17.1147 2.85694C17.1147 2.66342 17.1196 2.42407 17.1294 2.13889C17.1587 1.52778 17.3494 1.03379 17.7016 0.656943C18.0537 0.269907 18.5672 0.0763887 19.2422 0.0763887C19.9269 0.0763887 20.4404 0.269907 20.7828 0.656943C21.1349 1.03379 21.3256 1.52778 21.355 2.13889C21.3745 2.42407 21.3843 2.66342 21.3843 2.85694C21.3843 3.04027 21.3745 3.26435 21.355 3.52916C21.3256 4.14027 21.1251 4.62407 20.7534 4.98055C20.3915 5.33703 19.8877 5.51527 19.2422 5.51527ZM19.2422 4.56805C19.4965 4.56805 19.697 4.51203 19.8437 4.4C20.0002 4.28796 20.1127 4.15046 20.1812 3.9875C20.2497 3.81435 20.2888 3.6412 20.2986 3.46805C20.3181 3.19305 20.3279 2.97916 20.3279 2.82639C20.3279 2.66342 20.3181 2.45463 20.2986 2.2C20.2888 1.925 20.2008 1.67037 20.0345 1.43611C19.878 1.20185 19.6139 1.08472 19.2422 1.08472C18.8705 1.08472 18.6064 1.20185 18.4499 1.43611C18.3031 1.67037 18.22 1.925 18.2004 2.2C18.1906 2.45463 18.1858 2.66342 18.1858 2.82639C18.1858 2.97916 18.1906 3.19305 18.2004 3.46805C18.22 3.6412 18.2591 3.81435 18.3178 3.9875C18.3863 4.15046 18.4939 4.28796 18.6406 4.4C18.7873 4.51203 18.9878 4.56805 19.2422 4.56805Z" fill="white"/>
</svg>
