<svg width="9" height="16" viewBox="0 0 9 16" fill="none" xmlns="http://www.w3.org/2000/svg">
<path d="M7.35478 1.07463H6.67587V0.597014C6.67587 0.238805 6.44957 0 6.11011 0H2.82876C2.48931 0 2.26301 0.238805 2.26301 0.597014V1.07463H1.5841C0.678896 1.07463 0 1.79104 0 2.86567V14.209C0 15.1642 0.678896 16 1.5841 16H7.35478C8.25998 16 8.93887 15.1642 8.93887 14.209V2.86567C8.93887 1.91045 8.25998 1.07463 7.35478 1.07463ZM7.69421 2.86567V8.3582H1.24463V2.86567C1.24463 2.62687 1.3578 2.38806 1.5841 2.38806H7.35478C7.46793 2.38806 7.69421 2.62687 7.69421 2.86567Z" fill="white"/>
</svg>
